<!-- <?xml version="1.0" encoding="UTF-8" standalone="no"?><!DOCTYPE svg PUBLIC "-//W3C//DTD SVG 1.1//EN" "http://www.w3.org/Graphics/SVG/1.1/DTD/svg11.dtd"> -->
<svg width="100%" height="100%" viewBox="0 0 10 10" xmlns="http://www.w3.org/2000/svg" xmlnsXlink="http://www.w3.org/1999/xlink" style="fill-rule:evenodd;clip-rule:evenodd;stroke-linecap:round;stroke-linejoin:round;stroke-miterlimit:1.5;"><ellipse cx="4.993" cy="5.014" rx="4.832" ry="4.863" style="fill:none;stroke:white;stroke-width:0.2px;"/><path d="M5.084,1.984c-0.203,-0.001 -0.368,0.156 -0.369,0.352c-0.001,0.195 0.162,0.355 0.365,0.356c1.282,0.007 2.319,1.019 2.312,2.256c-0.006,1.237 -1.055,2.238 -2.337,2.23c-1.017,-0.005 -1.889,-0.655 -2.195,-1.545c0.005,0.005 0.01,0.009 0.014,0.013c0.249,0.279 0.48,0.189 0.501,-0.202c0.004,-0.079 0.008,-0.162 0.012,-0.245c0.015,-0.391 -0.012,-1.023 -0.081,-1.404c-0.069,-0.382 -0.41,-0.486 -0.709,-0.221c-0.199,0.176 -0.416,0.38 -0.583,0.57c-0.173,0.195 -0.365,0.444 -0.531,0.668c-0.235,0.319 -0.111,0.528 0.263,0.457c0.088,-0.017 0.184,-0.019 0.282,-0.011c0.168,1.466 1.466,2.62 3.023,2.629c1.687,0.009 3.067,-1.307 3.076,-2.935c0.009,-1.627 -1.356,-2.959 -3.043,-2.968Z" style="fill:white;"/></svg>
