<!-- <?xml version="1.0" encoding="UTF-8" standalone="no"?><!DOCTYPE svg PUBLIC "-//W3C//DTD SVG 1.1//EN" "http://www.w3.org/Graphics/SVG/1.1/DTD/svg11.dtd"> -->
<svg width="100%" height="100%" viewBox="0 0 10 10" xmlns="http://www.w3.org/2000/svg" xmlnsXlink="http://www.w3.org/1999/xlink" style="fill-rule:evenodd;clip-rule:evenodd;stroke-linecap:round;stroke-linejoin:round;stroke-miterlimit:1.5;"><ellipse cx="4.993" cy="5.014" rx="4.832" ry="4.863" style="fill:none;stroke:white;stroke-width:0.2px;"/><path d="M4.774,1.85c0.232,-0.001 0.421,0.174 0.422,0.392c0.001,0.218 -0.186,0.395 -0.418,0.396c-1.467,0.008 -2.654,1.134 -2.647,2.51c0.008,1.376 1.208,2.489 2.675,2.481c1.164,-0.007 2.162,-0.73 2.512,-1.719c-0.005,0.005 -0.011,0.009 -0.015,0.014c-0.285,0.31 -0.55,0.21 -0.574,-0.225c-0.005,-0.088 -0.009,-0.18 -0.013,-0.273c-0.018,-0.434 0.014,-1.137 0.092,-1.561c0.079,-0.425 0.47,-0.541 0.812,-0.247c0.228,0.197 0.476,0.424 0.668,0.634c0.197,0.217 0.417,0.494 0.606,0.744c0.269,0.354 0.128,0.587 -0.3,0.508c-0.101,-0.018 -0.211,-0.021 -0.323,-0.012c-0.193,1.631 -1.679,2.915 -3.461,2.925c-1.93,0.011 -3.509,-1.454 -3.519,-3.264c-0.01,-1.81 1.552,-3.292 3.483,-3.303Z" style="fill:white;"/></svg>
