<!-- <?xml version="1.0" encoding="UTF-8" standalone="no"?><!DOCTYPE svg PUBLIC "-//W3C//DTD SVG 1.1//EN" "http://www.w3.org/Graphics/SVG/1.1/DTD/svg11.dtd"> -->
<svg width="100%" height="100%" viewBox="0 0 10 10" xmlns="http://www.w3.org/2000/svg" xmlnsXlink="http://www.w3.org/1999/xlink" style="fill-rule:evenodd;clip-rule:evenodd;stroke-linecap:round;stroke-linejoin:round;stroke-miterlimit:1.5;"><ellipse cx="4.993" cy="5.014" rx="4.832" ry="4.863" style="fill:none;stroke:white;stroke-width:0.2px;"/><path d="M4.516,8.586l-1.617,-3.149c-0.265,-0.515 -0.043,-0.732 0.494,-0.483c0.23,0.106 0.441,0.203 0.608,0.28c0.202,0.094 0.312,0.025 0.275,-0.158c-0.062,-0.307 -0.13,-0.859 -0.117,-1.775c0.009,-0.612 0.101,-1.31 0.162,-1.713c0.028,-0.184 0.046,-0.498 0.191,-0.644c0.117,-0.117 0.883,-0.115 0.999,0.002c0.145,0.146 0.176,0.459 0.211,0.642c0.069,0.353 0.155,0.964 0.133,1.715c0.048,0.904 -0.032,1.465 -0.108,1.778c-0.044,0.183 0.056,0.249 0.259,0.157l0.608,-0.279c0.538,-0.247 0.759,-0.03 0.492,0.485l-1.628,3.143c-0.267,0.515 -0.698,0.514 -0.962,-0.001Z" style="fill:white;"/></svg>
