<!-- <?xml version="1.0" encoding="UTF-8" standalone="no"?><!DOCTYPE svg PUBLIC "-//W3C//DTD SVG 1.1//EN" "http://www.w3.org/Graphics/SVG/1.1/DTD/svg11.dtd"> -->
<svg width="60%" height="60%" viewBox="0 0 200 200" xmlns="http://www.w3.org/2000/svg" xmlnsXlink="http://www.w3.org/1999/xlink" style="fill-rule:evenodd;clip-rule:evenodd;stroke-linecap:round;stroke-linejoin:round;stroke-miterlimit:1.5;"><path d="M78.888,167.678l0,-33.131l8.906,-0l10.582,23.458c0.976,2.185 1.688,3.82 2.135,4.905c0.509,-1.206 1.301,-2.976 2.379,-5.311l10.705,-23.052l7.959,-0l0,33.131l-5.703,0l0,-27.73l-12.991,27.73l-5.338,0l-12.93,-28.205l-0,28.205l-5.704,0Z" style="fill-rule:nonzero;"/><path d="M3.297,167.349c0,0 0.592,29.105 96.635,29.105c96.043,0 95.836,-28.952 95.836,-28.952" style="fill:none;stroke:black;stroke-width:5px;"/><path d="M3.297,167.349l0.208,-138.148c24.985,-31.7 152.356,-35.594 192.669,0.084l-0.406,138.217" style="fill:none;stroke:black;stroke-width:5px;"/><path d="M3.505,29.201c28.56,41.165 174.596,34.272 192.669,0.084" style="fill:none;stroke:black;stroke-width:5px;"/><path d="M3.398,100.191c36.101,-24.138 157.109,-25.51 192.569,-0.383c-23.292,26.984 -156.026,30.657 -192.569,0.383Z" style="fill:none;stroke:black;stroke-width:1.5px;"/></svg>
