<!-- <?xml version="1.0" encoding="UTF-8" standalone="no"?><!DOCTYPE svg PUBLIC "-//W3C//DTD SVG 1.1//EN" "http://www.w3.org/Graphics/SVG/1.1/DTD/svg11.dtd"> -->
<svg width="60%" height="60%" viewBox="0 0 200 200" xmlns="http://www.w3.org/2000/svg" xmlnsXlink="http://www.w3.org/1999/xlink" style="fill-rule:evenodd;clip-rule:evenodd;stroke-linecap:round;stroke-linejoin:round;stroke-miterlimit:1.5;"><path d="M3.297,3.349c0,0 0.592,29.105 96.635,29.105c96.043,0 95.836,-28.952 95.836,-28.952l0.799,163.817c0,0 -0.251,29.104 -96.635,29.104c-96.383,0 -96.635,-29.93 -96.635,-29.93l0,-163.144Z" style="fill:none;stroke:black;stroke-width:5px;"/><path d="M69.31,137.833l0,-65.178l12.983,-0l15.427,46.149c1.423,4.298 2.461,7.514 3.113,9.648c0.741,-2.371 1.897,-5.854 3.468,-10.448l15.605,-45.349l11.604,-0l0,65.178l-8.314,0l0,-54.552l-18.94,54.552l-7.78,0l-18.852,-55.486l0,55.486l-8.314,0Z" style="fill-rule:nonzero;"/></svg>
