<!-- <?xml version="1.0" encoding="UTF-8" standalone="no"?><!DOCTYPE svg PUBLIC "-//W3C//DTD SVG 1.1//EN" "http://www.w3.org/Graphics/SVG/1.1/DTD/svg11.dtd"> -->
<svg width="100%" height="100%" viewBox="0 0 10 10" xmlns="http://www.w3.org/2000/svg" xmlnsXlink="http://www.w3.org/1999/xlink" style="fill-rule:evenodd;clip-rule:evenodd;stroke-linecap:round;stroke-linejoin:round;stroke-miterlimit:1.5;"><ellipse cx="4.993" cy="5.014" rx="4.832" ry="4.863" style="fill:none;stroke:white;stroke-width:0.2px;"/><path d="M5.484,1.243l1.623,3.146c0.266,0.515 0.045,0.731 -0.493,0.484c-0.23,-0.106 -0.442,-0.203 -0.608,-0.279c-0.203,-0.093 -0.312,-0.025 -0.275,0.158c0.062,0.307 0.131,0.859 0.12,1.776c-0.007,0.611 -0.098,1.31 -0.158,1.712c-0.028,0.184 -0.045,0.499 -0.19,0.645c-0.117,0.117 -0.883,0.117 -0.999,0c-0.145,-0.145 -0.177,-0.458 -0.213,-0.642c-0.069,-0.352 -0.157,-0.963 -0.136,-1.715c-0.05,-0.903 0.029,-1.465 0.104,-1.778c0.044,-0.182 -0.056,-0.249 -0.258,-0.156l-0.608,0.28c-0.538,0.248 -0.759,0.032 -0.493,-0.484l1.622,-3.146c0.266,-0.515 0.696,-0.515 0.962,-0.001Z" style="fill:white;"/></svg>
